<svg width="30" height="30" fill="none" xmlns="http://www.w3.org/2000/svg"><g clip-path="url(#a)"><path fill="#7595FD" d="M.300903 12.3187h17.0737v17.0738H.300903z"/><path d="M22.253 19.6361h-2.4391v-1.2195h-9.7565v1.2195H7.61833v-1.2195H2.74011v6.0977H27.1312v-6.0977H22.253v1.2195Zm2.4391-9.75642h-3.6587V7.44057c0-1.34151-1.0976-2.43911-2.4391-2.43911H11.277c-1.34152 0-2.43912 1.0976-2.43912 2.43911v2.43911H5.17922c-1.34151 0-2.43911 1.09762-2.43911 2.43912v4.8782h4.87822v-2.4391h2.43907v2.4391h9.7565v-2.4391h2.4391v2.4391h4.8782v-4.8782c0-1.3415-1.0976-2.43912-2.4391-2.43912Zm-6.0978 0H11.277V7.44057h7.3173v2.43911Z" fill="#fff"/></g><defs><clipPath id="a"><path fill="#fff" transform="translate(.300903 .123291)" d="M0 0h29.2693v29.2693H0z"/></clipPath></defs></svg>