<svg width="30" height="30" fill="none" xmlns="http://www.w3.org/2000/svg"><g clip-path="url(#a)"><path fill="#7595FD" d="M.505249 12.752h17.0737v17.0738H.505249z"/><path d="M24.2865 4.21516c-.8085.00065-1.5836.32208-2.1552.89371-.5717.57164-.8931 1.34676-.8937 2.15517 0 .43539.0951.84881.261 1.22566l-2.3843 2.6818c-.8099-.5591-1.7708-.8585-2.7549-.8586-.9025 0-1.7367.2635-2.4623.6903l-2.7733-2.77205-.028.02805c.239-.48538.3853-1.02564.3853-1.60493 0-.72362-.2145-1.43098-.6166-2.03264-.402-.60167-.97338-1.07061-1.64191-1.34752-.66853-.27692-1.40417-.34937-2.11388-.2082-.70971.14117-1.36162.48962-1.87329 1.00129-.51168.51168-.86013 1.16359-1.0013 1.8733-.14117.70971-.06872 1.44534.2082 2.11388.27691.66853.74585 1.23993 1.34752 1.64195.60166.40207 1.30903.61657 2.03264.61657.57929 0 1.11833-.1463 1.60493-.38535l-.02805.02805 2.77324 2.772c-.448.744-.6869 1.5951-.6915 2.4635 0 1.2159.4635 2.316 1.2013 3.1721l-3.14279 3.1416c-.35224-.141-.72794-.2143-1.10735-.2159-1.68055 0-3.04889 1.3671-3.04889 3.0489 0 1.6818 1.36834 3.0489 3.04889 3.0489 1.68054 0 3.04884-1.3671 3.04884-3.0489 0-.3915-.0804-.7634-.2158-1.1086l3.4611-3.4611c.5134.183 1.0573.3013 1.633.3013 2.6903 0 4.8782-2.1879 4.8782-4.8783 0-.7756-.1988-1.4988-.522-2.1512l2.5818-2.9062c.3122.1073.6415.1792.9891.1792 1.6817 0 3.0488-1.36709 3.0488-3.04886 0-1.68176-1.3671-3.04888-3.0488-3.04888ZM16.3594 17.6302c-1.3452 0-2.4392-1.0939-2.4392-2.4391 0-1.3451 1.094-2.4391 2.4392-2.4391 1.3451 0 2.4391 1.094 2.4391 2.4391 0 1.3452-1.094 2.4391-2.4391 2.4391Z" fill="#fff"/></g><defs><clipPath id="a"><path fill="#fff" transform="translate(.505249 .556519)" d="M0 0h29.2693v29.2693H0z"/></clipPath></defs></svg>