<svg width="30" height="30" fill="none" xmlns="http://www.w3.org/2000/svg"><g clip-path="url(#a)"><path fill="#7595FD" d="M.300903 12.752h17.0737v17.0738H.300903z"/><path d="M23.4616 2.99561H11.2892c-1.35493 0-2.45131 1.09637-2.45131 2.4513v6.87459l-5.73434 5.6612c-.17181.1699-.28927.3871-.33747.6239-.0482.2368-.02496.4826.06677.7061.09173.2236.24781.4149.44843.5496s.43674.2068.6784.2071v6.0977c0 .3235.12849.6337.3572.8624.22871.2287.53891.3572.86235.3572H24.6921c.3234 0 .6336-.1285.8623-.3572.2288-.2287.3572-.5389.3572-.8624V5.44569c0-1.35371-1.0951-2.45008-2.45-2.45008ZM13.621 18.9852v5.9624H6.39879v-6.7905l3.64281-3.5965 3.5794 3.6624v.7622Zm2.5342-7.4527h-2.4391V9.09337h2.4391v2.43913Zm4.8782 9.7564h-2.4391v-2.4391h2.4391v2.4391Zm0-4.8782h-2.4391v-2.4391h2.4391v2.4391Zm0-4.8782h-2.4391V9.09337h2.4391v2.43913Z" fill="#292E3D"/><path d="M8.83777 18.8497h2.43913v2.4391H8.83777v-2.4391Z" fill="#14171F"/></g><defs><clipPath id="a"><path fill="#fff" transform="translate(.300903 .556519)" d="M0 0h29.2693v29.2693H0z"/></clipPath></defs></svg>