<svg width="30" height="30" fill="none" xmlns="http://www.w3.org/2000/svg"><g clip-path="url(#a)"><path fill="#7595FD" d="M.505249 12.3187h17.0737v17.0738H.505249z"/><path d="m8.2616 23.0265.30489 2.7074 1.97571-1.8781 3.3781-9.2686c-.8293-.2073-1.561-.6219-2.1586-1.1951l-3.5001 9.6344Zm10.2564-9.6344c-.5975.5732-1.3415.9878-2.1586 1.1951l3.3782 9.2686 1.9757 1.8781.3171-2.7074-3.5124-9.6344Zm.2074-2.7806c.3658-1.90252-.7318-3.58551-2.366-4.17089V5.00154c0-.67076-.5488-1.21956-1.2195-1.21956-.6708 0-1.2196.5488-1.2196 1.21956v1.43907c-1.4147.51221-2.4391 1.85372-2.4391 3.43914 0 2.24395 2.0245 4.02455 4.3416 3.59765 1.4391-.2683 2.6221-1.4268 2.9026-2.8659Zm-3.5855.4878c-.6708 0-1.2196-.5488-1.2196-1.21955s.5488-1.21955 1.2196-1.21955c.6707 0 1.2195.5488 1.2195 1.21955s-.5488 1.21955-1.2195 1.21955Z" fill="#292E3D"/></g><defs><clipPath id="a"><path fill="#fff" transform="translate(.505249 .123291)" d="M0 0h29.2693v29.2693H0z"/></clipPath></defs></svg>