<svg width="30" height="30" fill="none" xmlns="http://www.w3.org/2000/svg"><g clip-path="url(#a)"><path fill="#7595FD" d="M.0755615 12.752h17.0737v17.0738h-17.0737z"/><path d="M13.4906 7.87379h3.6587l4.0123-4.02452c.1134-.11431.2483-.20504.3969-.26695.1486-.06192.308-.09379.469-.09379.161 0 .3204.03187.469.09379.1486.06191.2835.15264.3969.26695l3.1464 3.15864c.2272.2285.3547.5376.3547.85979 0 .32218-.1275.63128-.3547.85978L23.247 11.5325h-9.7564v2.4391c0 .3234-.1285.6336-.3572.8623-.2287.2287-.5389.3572-.8623.3572-.3235 0-.6337-.1285-.8624-.3572-.2287-.2287-.3572-.5389-.3572-.8623v-3.6587c0-.64689.257-1.26729.7144-1.72471.4574-.45742 1.0778-.7144 1.7247-.7144ZM6.17329 13.9716v4.8782l-2.79277 2.7928c-.22715.2285-.35464.5376-.35464.8597 0 .3222.12749.6313.35464.8598l3.14644 3.1587c.11338.1143.24826.205.39688.2669.14861.0619.30801.0938.46901.0938.16099 0 .32039-.0319.46901-.0938.14861-.0619.2835-.1526.39687-.2669l5.23187-5.2319h4.8782c.3235 0 .6337-.1285.8624-.3572.2287-.2287.3572-.5389.3572-.8624v-1.2195h1.2195c.3235 0 .6337-.1285.8624-.3572.2287-.2287.3572-.5389.3572-.8624v-1.2195h1.2195c.3235 0 .6337-.1285.8624-.3572.2287-.2287.3572-.5389.3572-.8624v-1.2195h-8.5369v1.2195c0 .6469-.257 1.2673-.7144 1.7247-.4574.4574-1.0778.7144-1.7247.7144h-2.4391c-.6469 0-1.26728-.257-1.7247-.7144-.45742-.4574-.7144-1.0778-.7144-1.7247v-3.6586l-2.43911 2.4391Z" fill="#292E3D"/></g><defs><clipPath id="a"><path fill="#fff" transform="translate(.0755615 .556519)" d="M0 0h29.2693v29.2693H0z"/></clipPath></defs></svg>