<svg width="30" height="30" fill="none" xmlns="http://www.w3.org/2000/svg"><g clip-path="url(#a)"><path fill="#7595FD" d="M.0755615 12.3187h17.0737v17.0738h-17.0737z"/><path d="M25.6862 17.197c0-.6707-.5488-1.2195-1.2195-1.2195h-2.4392v2.4391h2.4392c.6707 0 1.2195-.5488 1.2195-1.2196Zm-1.2195 3.6587h-2.4392v2.4391h2.4392c.6707 0 1.2195-.5488 1.2195-1.2195 0-.6708-.5488-1.2196-1.2195-1.2196Zm-9.7565-3.6587h-2.4391v4.8783h2.4391c0 1.3415 1.0976 2.4391 2.4391 2.4391h3.6587v-9.7565h-3.6587c-1.3415 0-2.4391 1.0976-2.4391 2.4391Z" fill="#fff"/><path d="M6.17336 15.9774c0-1.3415 1.0976-2.4391 2.43911-2.4391h1.82933c2.3537 0 4.2684-1.9147 4.2684-4.2684 0-2.35374-1.9147-4.26844-4.2684-4.26844H6.17336c-.67075 0-1.21955.5488-1.21955 1.21956 0 .67075.5488 1.21955 1.21955 1.21955h4.26844c1.0122 0 1.8293.8171 1.8293 1.82933 0 1.0122-.8171 1.8293-1.8293 1.8293H8.61247c-2.69522 0-4.87822 2.183-4.87822 4.8782 0 2.6953 2.183 4.8783 4.87822 4.8783h2.43913v-2.4391H8.61247c-1.34151 0-2.43911-1.0976-2.43911-2.4392Z" fill="#fff"/></g><defs><clipPath id="a"><path fill="#fff" transform="translate(.0755615 .123291)" d="M0 0h29.2693v29.2693H0z"/></clipPath></defs></svg>